<svg id="Layer_2" xmlns="http://www.w3.org/2000/svg" viewBox="0 0 645.63 104.41">
    <path fill="#0077d4" d="M292.38,46.47h11.76c9.61,0,13.62-4.96,13.62-11.05,0-7.77-6.62-10.82-13.62-10.82h-11.76v21.87Zm108.37-22.79l-11.05,33.9h22.79l-11.16-33.9h-.58ZM0,1.6H39.55s-.06,68.31-.06,102.8c-.24,0-39.25,.02-39.49,0C0,104.4,0,1.6,0,1.6Zm596.86,0V104.4h-35.65V23.88h-.51l-20.48,80.52h-32.91l-20.4-80.52h-.55V104.4h-62.33l-6.21-22.14h-33.5l-6.21,22.14h-59.57s-2.02-15.15-2.54-18.94c-1.76-12.74-5.61-15.82-13.21-15.82h-10.4v34.76h-61.02c17.58-3.99,33.45-11.98,42.55-17.48l-12.81-48.59-34.07,8.98,7.27,27.56c-2.14,1.51-9.23,4-14.09,4-16.27,0-24.01-16.3-24.01-30.35,0-22.61,23.04-31.31,43.35-31.31,4.72,0,10.82,.41,11.68,.51l-4.25-16.13h71.01c28.42,0,39.44,13.47,39.44,27.8,0,21.71-20.7,25.79-24.65,26.49-.06,.01-.06,.61,0,.62,8.27,1.57,14.35,5.58,18.23,12.56-.13-.24,21.75-61.81,23.73-67.46h54.59l23.03,64.48h.31V1.6h58.71s13.6,56.29,13.68,56.29c4.44-18.74,13.33-56.29,13.33-56.29h58.46ZM192.5,104.4H109.28c-6.44-23.91-20.09-74.4-20.09-74.4h-.24V104.4H54.93V1.6h59.06c6.22,23.71,19.24,72.49,19.24,72.49h.24V1.6h34.1v15.62c-8.31,8.77-13.35,19.99-13.35,34.07,0,20.2,11.35,45.26,38.28,53.11Zm452.81-13.27v3.53l-17.92,5.3v.12h17.92v4.32h-21.99v-8.04l13.17-3.85-13.17-4.04v-8.04h21.99v5.13h-17.92v.13l17.92,5.44Zm0-22.12h-21.99v5.13h21.99v-5.13Zm-13.81-23.72c-5.29,.58-8.5,3.39-8.5,8.91,0,6.6,5.22,9.87,11.31,9.87s11.31-3.17,11.31-9.71c0-5.07-2.98-8.53-8.01-9.07l-.32,5c2.12,.29,4.13,1.41,4.13,3.82,0,3.88-3.88,4.23-6.89,4.23-2.66,0-7.4-.35-7.4-3.97,0-2.82,2.27-3.66,4.71-3.68l-.34-5.4Zm5.12-10.02v-3.75l8.69-3.37v-5.71l-9.71,4.07c-.87-2.37-3.18-3.81-5.67-3.81-4.06,0-6.6,2.65-6.6,7.94v9.75h21.99v-5.13h-8.7Zm-9.39,0v-3.93c0-2.43,1.54-3.32,2.78-3.32,1.38,0,2.83,.93,2.83,3.32v3.93h-5.61Zm18.4-25.91c0-5.52-4.23-9.36-11.35-9.36-5.13,0-11.28,2.55-11.28,9.36s5.45,9.43,11.28,9.43c5.92,0,11.35-2.92,11.35-9.43Zm-18.43,0c0-2.82,2.71-3.97,7.12-3.97s7.12,1.05,7.12,3.97c0,3.62-4.39,4.04-7.15,4.04-4.4,0-7.09-1.16-7.09-4.04Z"/>
</svg>